<?xml version="1.0" encoding="UTF-8" standalone="no"?>
<svg width="38px" height="38px" viewBox="0 0 38 38" version="1.1" xmlns="http://www.w3.org/2000/svg" xmlns:xlink="http://www.w3.org/1999/xlink">
    <title>dataset_connector_unicorn</title>
    <defs>
        <polygon id="path-1" points="0 38 38 38 38 0 0 0"></polygon>
    </defs>
    <g id="Page-1" stroke="none" stroke-width="1" fill="none" fill-rule="evenodd">
        <g id="dataset_connector_unicorn">
            <path d="M13,20 C11.9,20 11,19.1 11,18 C11,16.9 11.9,16 13,16 C14.1,16 15,16.9 15,18 C15,19.1 14.1,20 13,20 Z M29.77,33 C29.29,32.47 29,31.76 29,31 L29,29 C29,28.45 28.55,28 28,28 C27.189,28 26.43,27.68 25.891,27.13 C25.32,26.57 25,25.811 25,25 L25,23 C25,22.45 24.55,22 24,22 C23.189,22 22.43,21.68 21.891,21.13 C21.32,20.57 21,19.811 21,19 L21,17 C21,16.45 20.55,16 20,16 C19.189,16 18.43,15.68 17.891,15.13 C17.32,14.57 17,13.811 17,13 L17,4 C15.9,4 15,4.9 15,6 L15,7 L13,7 L13,6 C13,4.9 12.1,4 11,4 L11,7.79 L3.59,4.189 L9.95,11.38 L4.67,22.64 C4.22,23.36 4,24.17 4,24.97 C4,26.11 4.439,27.24 5.29,28.09 C6.58,29.38 8.53,29.75 10.2,29.01 L17,25.61 L17,33 L29.77,33 Z" id="Fill-1" fill="#1D2D3C"></path>
            <path d="M18,7.0303 L18,13.0003 C18,13.5503 18.22,14.0503 18.59,14.4103 C18.95,14.7803 19.45,15.0003 20,15.0003 C21.1,15.0003 22,15.9003 22,17.0003 L22,7.7403 C20.72,7.3493 19.38,7.1103 18,7.0303" id="Fill-3" fill="#48B6F9"></path>
            <path d="M30,29 L30,31 C30,32.1 30.9,33 32,33 L34,33 L34,24 C34,19.83 32.5,16.01 30,13.05 L30,29 Z" id="Fill-5" fill="#F37168"></path>
            <path d="M26,9.5703 L26,23.0003 L26,25.0003 C26,25.5493 26.22,26.0493 26.59,26.4103 C26.95,26.7803 27.45,27.0003 28,27.0003 C29.1,27.0003 30,27.9003 30,29.0003 L30,13.0493 C28.859,11.6893 27.51,10.5193 26,9.5703" id="Fill-7" fill="#FFCF50"></path>
            <path d="M22,7.7402 L22,17.0002 L22,19.0002 C22,19.5502 22.22,20.0502 22.59,20.4102 C22.95,20.7802 23.45,21.0002 24,21.0002 C25.1,21.0002 26,21.9002 26,23.0002 L26,9.5702 C24.77,8.8002 23.42,8.1792 22,7.7402" id="Fill-9" fill="#BC6ED5"></path>
            <mask id="mask-2" fill="white">
                <use xlink:href="#path-1"></use>
            </mask>
            <g id="Clip-12"></g>
        </g>
    </g>
</svg>
